<svg width="845" height="369" viewBox="0 0 845 369" fill="none" xmlns="http://www.w3.org/2000/svg">
<path d="M639.75 145.65L638.801 145.334L638.552 146.081L639.22 146.498L639.75 145.65ZM654.15 152.25L654.738 153.059L656.241 151.966L654.501 151.314L654.15 152.25ZM642.3 162.3L641.593 161.593L641.588 161.598L641.583 161.603L642.3 162.3ZM630.9 174.75L630.283 175.537L631.029 176.121L631.653 175.409L630.9 174.75ZM621.3 166.8L621.964 166.053L621.432 165.58L620.811 165.928L621.3 166.8ZM563.55 170.7L563.214 171.642L563.218 171.643L563.55 170.7ZM547.2 160.2L546.429 160.837L546.437 160.846L546.444 160.855L547.2 160.2ZM545.7 129.75L546.544 130.287L546.544 130.287L545.7 129.75ZM558.75 117.6L559.281 118.447L560.316 117.798L559.475 116.912L558.75 117.6ZM550.5 106.5L549.6 106.937L549.605 106.947L549.611 106.957L550.5 106.5ZM553.5 80.25L554.279 80.8768L554.279 80.8768L553.5 80.25ZM568.35 69.3L568.749 70.2169L568.762 70.2114L568.35 69.3ZM607.8 69.45L607.371 70.3532L607.383 70.3588L607.8 69.45ZM622.35 81L621.544 81.5921L621.551 81.6014L621.558 81.6105L622.35 81ZM620.55 113.7L619.85 112.986L618.284 114.52L620.469 114.697L620.55 113.7ZM636.75 114.15L637.652 113.719L637.381 113.15H636.75V114.15ZM583.35 91.5L583.941 92.3064L583.941 92.3064L583.35 91.5ZM582.3 99.45L581.491 100.038L581.505 100.057L581.519 100.075L582.3 99.45ZM587.4 104.4L586.737 105.149L587.237 105.591L587.837 105.3L587.4 104.4ZM594.45 99.75L593.691 99.0992L593.691 99.0992L594.45 99.75ZM614.7 132.15L614.11 132.957L615.596 134.044L615.698 132.205L614.7 132.15ZM611.4 120.45L612.268 119.954L611.772 119.086L610.904 119.582L611.4 120.45ZM604.05 124.2L603.629 123.293L602.154 123.978L603.43 124.985L604.05 124.2ZM595.05 147.75L595.214 148.736L597.54 148.349L595.645 146.946L595.05 147.75ZM578.7 135L579.331 134.224L578.808 133.799L578.218 134.124L578.7 135ZM574.5 138.15L573.719 137.525L573.719 137.525L574.5 138.15ZM576.15 146.55L576.684 145.705L576.684 145.705L576.15 146.55ZM639.22 146.498C642.505 148.551 647.378 150.778 653.799 153.186L654.501 151.314C648.122 148.922 643.395 146.749 640.28 144.802L639.22 146.498ZM653.562 151.441C649.124 154.669 645.133 158.053 641.593 161.593L643.007 163.007C646.467 159.547 650.376 156.231 654.738 153.059L653.562 151.441ZM641.583 161.603C638.168 165.119 634.356 169.282 630.147 174.091L631.653 175.409C635.844 170.618 639.632 166.481 643.017 162.997L641.583 161.603ZM631.517 173.963C627.829 171.072 624.645 168.436 621.964 166.053L620.636 167.547C623.355 169.964 626.571 172.628 630.283 175.537L631.517 173.963ZM620.811 165.928C611.894 170.925 600.972 173.45 588 173.45V175.45C601.228 175.45 612.506 172.875 621.789 167.672L620.811 165.928ZM588 173.45C578.889 173.45 570.855 172.212 563.882 169.757L563.218 171.643C570.445 174.188 578.711 175.45 588 175.45V173.45ZM563.886 169.758C557.009 167.302 551.718 163.886 547.956 159.545L546.444 160.855C550.482 165.514 556.091 169.098 563.214 171.642L563.886 169.758ZM547.971 159.563C544.32 155.143 542.5 150.069 542.5 144.3H540.5C540.5 150.531 542.48 156.057 546.429 160.837L547.971 159.563ZM542.5 144.3C542.5 139.187 543.848 134.524 546.544 130.287L544.856 129.213C541.952 133.776 540.5 138.813 540.5 144.3H542.5ZM546.544 130.287C549.242 126.047 553.467 122.093 559.281 118.447L558.219 116.753C552.233 120.507 547.758 124.653 544.856 129.213L546.544 130.287ZM559.475 116.912C555.819 113.057 553.133 109.434 551.389 106.043L549.611 106.957C551.467 110.566 554.281 114.343 558.025 118.288L559.475 116.912ZM551.4 106.063C549.769 102.707 548.95 99.057 548.95 95.1H546.95C546.95 99.343 547.831 103.293 549.6 106.937L551.4 106.063ZM548.95 95.1C548.95 90.0541 550.705 85.3206 554.279 80.8768L552.721 79.6232C548.895 84.3794 546.95 89.5459 546.95 95.1H548.95ZM554.279 80.8768C557.864 76.42 562.676 72.8617 568.749 70.2168L567.951 68.3832C561.624 71.1383 556.536 74.88 552.721 79.6232L554.279 80.8768ZM568.762 70.2114C574.828 67.4715 581.288 66.1 588.15 66.1V64.1C581.012 64.1 574.272 65.5285 567.938 68.3886L568.762 70.2114ZM588.15 66.1C595.007 66.1 601.41 67.5193 607.371 70.3531L608.229 68.5469C601.99 65.5807 595.293 64.1 588.15 64.1V66.1ZM607.383 70.3588C613.345 73.0955 618.055 76.8428 621.544 81.5921L623.156 80.4079C619.445 75.3572 614.455 71.4045 608.217 68.5412L607.383 70.3588ZM621.558 81.6105C625.135 86.2509 626.9 91.2395 626.9 96.6H628.9C628.9 90.7605 626.965 85.3491 623.142 80.3895L621.558 81.6105ZM626.9 96.6C626.9 102.92 624.567 108.365 619.85 112.986L621.25 114.414C626.333 109.435 628.9 103.48 628.9 96.6H626.9ZM620.469 114.697C624.21 115 629.643 115.15 636.75 115.15V113.15C629.657 113.15 624.29 113 620.631 112.703L620.469 114.697ZM635.848 114.581C638.99 121.161 640.55 127.715 640.55 134.25H642.55C642.55 127.385 640.91 120.539 637.652 113.719L635.848 114.581ZM640.55 134.25C640.55 138.148 639.966 141.841 638.801 145.334L640.699 145.966C641.934 142.259 642.55 138.352 642.55 134.25H640.55ZM588.9 88.85C586.527 88.85 584.46 89.446 582.759 90.6936L583.941 92.3064C585.24 91.354 586.873 90.85 588.9 90.85V88.85ZM582.759 90.6936C581.012 91.9745 580.1 93.7191 580.1 95.85H582.1C582.1 94.3809 582.688 93.2254 583.941 92.3064L582.759 90.6936ZM580.1 95.85C580.1 97.3715 580.573 98.7757 581.491 100.038L583.109 98.8618C582.427 97.9243 582.1 96.9285 582.1 95.85H580.1ZM581.519 100.075C582.38 101.151 584.143 102.854 586.737 105.149L588.063 103.651C585.457 101.346 583.82 99.7487 583.081 98.8253L581.519 100.075ZM587.837 105.3C591.353 103.591 593.866 101.968 595.209 100.401L593.691 99.0992C592.634 100.332 590.447 101.809 586.963 103.5L587.837 105.3ZM595.209 100.401C596.515 98.8778 597.25 97.2557 597.25 95.55H595.25C595.25 96.6443 594.785 97.8221 593.691 99.0992L595.209 100.401ZM597.25 95.55C597.25 93.8011 596.426 92.2513 594.978 90.9152L593.622 92.3848C594.774 93.4487 595.25 94.4989 595.25 95.55H597.25ZM594.978 90.9152C593.443 89.4984 591.374 88.85 588.9 88.85V90.85C591.026 90.85 592.557 91.4015 593.622 92.3848L594.978 90.9152ZM615.698 132.205C615.912 128.357 614.732 124.266 612.268 119.954L610.532 120.946C612.868 125.034 613.888 128.743 613.702 132.095L615.698 132.205ZM610.904 119.582C608.834 120.765 606.41 122.002 603.629 123.293L604.471 125.107C607.29 123.798 609.766 122.535 611.896 121.318L610.904 119.582ZM603.43 124.985C605.347 126.498 608.911 129.158 614.11 132.957L615.29 131.343C610.089 127.542 606.553 124.902 604.67 123.415L603.43 124.985ZM586.8 149.35C589.941 149.35 592.748 149.148 595.214 148.736L594.886 146.764C592.552 147.152 589.859 147.35 586.8 147.35V149.35ZM595.645 146.946C590.659 143.257 585.222 139.017 579.331 134.224L578.069 135.776C583.978 140.583 589.441 144.843 594.455 148.554L595.645 146.946ZM578.218 134.124C576.179 135.245 574.642 136.372 573.719 137.525L575.281 138.775C575.958 137.928 577.221 136.955 579.182 135.876L578.218 134.124ZM573.719 137.525C572.802 138.672 572.3 139.937 572.3 141.3H574.3C574.3 140.463 574.598 139.628 575.281 138.775L573.719 137.525ZM572.3 141.3C572.3 143.933 573.418 146.007 575.616 147.395L576.684 145.705C575.082 144.693 574.3 143.267 574.3 141.3H572.3ZM575.616 147.395C576.725 148.096 578.235 148.576 580.071 148.886C581.919 149.198 584.166 149.35 586.8 149.35V147.35C584.234 147.35 582.106 147.202 580.404 146.914C578.69 146.624 577.475 146.204 576.684 145.705L575.616 147.395Z" fill="#003CFF" fill-opacity="0.4"/>
<path d="M6 164.1L5.16795 163.545L4.54505 164.48L5.54506 164.991L6 164.1ZM14.4 149.85L13.5138 149.387L13.5096 149.395L13.5056 149.403L14.4 149.85ZM21 134.55L21.5001 133.684L20.4662 133.087L20.0597 134.21L21 134.55ZM45.75 144.15L45.5123 145.121L45.5123 145.121L45.75 144.15ZM89.55 145.5L89.9308 146.425L89.9423 146.42L89.9536 146.415L89.55 145.5ZM22.35 125.25L21.9266 126.156L21.9347 126.16L22.35 125.25ZM25.35 74.7L25.8461 75.5682L25.8461 75.5682L25.35 74.7ZM100.95 69.15L100.71 70.1207L100.72 70.1232L100.95 69.15ZM130.65 79.95L131.566 80.3523L131.941 79.4967L131.113 79.0638L130.65 79.95ZM121.5 104.1L120.552 103.781L120.547 103.797L120.542 103.813L121.5 104.1ZM120 108.6L119.373 109.379L120.427 110.226L120.928 108.971L120 108.6ZM96.9 98.4L96.6377 99.365L96.6464 99.3673L96.9 98.4ZM50.4 96.15L50.7417 97.0898L50.7542 97.0853L50.7665 97.0804L50.4 96.15ZM52.2 107.4L51.8838 108.349L51.8963 108.353L51.9088 108.357L52.2 107.4ZM118.2 116.85L117.745 117.741L117.753 117.744L118.2 116.85ZM117.3 169.35L117.813 170.208L117.819 170.205L117.3 169.35ZM37.05 174.9L36.8376 175.877L36.8457 175.879L37.05 174.9ZM6.83205 164.655C10.2497 159.528 13.072 154.742 15.2944 150.297L13.5056 149.403C11.328 153.758 8.55028 158.472 5.16795 163.545L6.83205 164.655ZM15.2862 150.313C17.6112 145.865 19.8285 140.723 21.9403 134.89L20.0597 134.21C17.9715 139.977 15.7888 145.035 13.5138 149.387L15.2862 150.313ZM20.4999 135.416C27.6952 139.571 36.0364 142.803 45.5123 145.121L45.9877 143.179C36.6636 140.897 28.5048 137.729 21.5001 133.684L20.4999 135.416ZM45.5123 145.121C54.9756 147.437 63.8062 148.6 72 148.6V146.6C63.9938 146.6 55.3245 145.463 45.9877 143.179L45.5123 145.121ZM72 148.6C80.3072 148.6 86.3327 147.906 89.9308 146.425L89.1693 144.575C85.9673 145.894 80.2928 146.6 72 146.6V148.6ZM89.9536 146.415C91.7035 145.643 93.0936 144.813 94.0604 143.903C95.0338 142.987 95.65 141.916 95.65 140.7H93.65C93.65 141.184 93.4162 141.763 92.6896 142.447C91.9564 143.137 90.7965 143.857 89.1464 144.585L89.9536 146.415ZM95.65 140.7C95.65 136.976 92.758 134.452 87.9866 132.887C83.1823 131.312 76.0786 130.55 66.75 130.55V132.55C76.0214 132.55 82.8677 133.313 87.3634 134.788C91.892 136.273 93.65 138.324 93.65 140.7H95.65ZM66.75 130.55C46.3767 130.55 31.7595 128.446 22.7653 124.34L21.9347 126.16C31.3405 130.454 46.3233 132.55 66.75 132.55V130.55ZM22.7734 124.344C18.302 122.254 15.01 119.562 12.8321 116.295C10.6569 113.033 9.55 109.132 9.55 104.55H7.55C7.55 109.468 8.74311 113.767 11.168 117.405C13.59 121.038 17.198 123.946 21.9266 126.156L22.7734 124.344ZM9.55 104.55C9.55 91.3883 14.9752 81.7802 25.8461 75.5682L24.8539 73.8318C13.3248 80.4198 7.55 90.7117 7.55 104.55H9.55ZM25.8461 75.5682C36.8476 69.2817 51.2098 66.1 69 66.1V64.1C50.9902 64.1 36.2524 67.3183 24.8539 73.8318L25.8461 75.5682ZM69 66.1C79.3128 66.1 89.882 67.4386 100.71 70.1207L101.19 68.1793C90.218 65.4614 79.4872 64.1 69 64.1V66.1ZM100.72 70.1232C111.65 72.7066 121.47 76.2797 130.187 80.8362L131.113 79.0638C122.23 74.4203 112.25 70.7934 101.18 68.1768L100.72 70.1232ZM129.734 79.5477C126.819 86.1831 123.758 94.2626 120.552 103.781L122.448 104.419C125.642 94.9374 128.681 86.9169 131.566 80.3523L129.734 79.5477ZM120.542 103.813C119.944 105.805 119.455 107.271 119.072 108.229L120.928 108.971C121.345 107.929 121.856 106.395 122.458 104.387L120.542 103.813ZM120.627 107.821C115.369 103.594 107.515 100.149 97.1536 97.4327L96.6464 99.3673C106.885 102.051 114.431 105.406 119.373 109.379L120.627 107.821ZM97.1623 97.435C86.8046 94.6193 77.6134 93.2 69.6 93.2V95.2C77.3866 95.2 86.3954 96.5807 96.6377 99.365L97.1623 97.435ZM69.6 93.2C64.8305 93.2 60.8192 93.363 57.574 93.6926C54.344 94.0207 51.8113 94.5192 50.0335 95.2196L50.7665 97.0804C52.2887 96.4808 54.606 96.0043 57.776 95.6824C60.9308 95.362 64.8695 95.2 69.6 95.2V93.2ZM50.0583 95.2102C48.3189 95.8427 46.9211 96.6653 45.9503 97.7243C44.9595 98.8051 44.45 100.095 44.45 101.55H46.45C46.45 100.605 46.7655 99.7949 47.4247 99.0757C48.1039 98.3347 49.1811 97.6573 50.7417 97.0898L50.0583 95.2102ZM44.45 101.55C44.45 103.108 45.1956 104.453 46.4826 105.568C47.748 106.665 49.5746 107.579 51.8838 108.349L52.5162 106.451C50.3254 105.721 48.777 104.91 47.7924 104.057C46.8294 103.222 46.45 102.392 46.45 101.55H44.45ZM51.9088 108.357C56.6498 109.8 63.366 110.5 72 110.5V108.5C63.434 108.5 56.9502 107.8 52.4912 106.443L51.9088 108.357ZM72 110.5C93.1665 110.5 108.366 112.953 117.745 117.741L118.655 115.959C108.834 110.947 93.2335 108.5 72 108.5V110.5ZM117.753 117.744C122.428 120.082 125.877 123.023 128.161 126.544C130.442 130.061 131.6 134.217 131.6 139.05H133.6C133.6 133.883 132.358 129.339 129.839 125.456C127.323 121.577 123.572 118.418 118.647 115.956L117.753 117.744ZM131.6 139.05C131.6 152.772 126.626 162.511 116.781 168.495L117.819 170.205C128.374 163.789 133.6 153.328 133.6 139.05H131.6ZM116.787 168.492C106.818 174.453 91.5862 177.5 70.95 177.5V179.5C91.7138 179.5 107.382 176.447 117.813 170.208L116.787 168.492ZM70.95 177.5C59.9225 177.5 48.691 176.308 37.2543 173.921L36.8457 175.879C48.409 178.292 59.7775 179.5 70.95 179.5V177.5ZM37.2624 173.923C25.8352 171.439 15.5684 167.865 6.45494 163.209L5.54506 164.991C14.8316 169.735 25.2648 173.361 36.8376 175.877L37.2624 173.923ZM250.474 94.95L251.148 95.6891L253.056 93.95H250.474V94.95ZM213.274 128.85L212.601 128.111L211.948 128.705L212.457 129.427L213.274 128.85ZM248.824 177V178H250.873L249.613 176.385L248.824 177ZM209.074 177L208.225 177.528L208.519 178H209.074V177ZM201.424 164.7L200.568 165.216L200.571 165.222L200.575 165.228L201.424 164.7ZM191.524 148.5L192.366 147.961L191.726 146.96L190.849 147.762L191.524 148.5ZM179.074 159.9L178.399 159.162L178.074 159.46V159.9H179.074ZM179.074 177V178H180.074V177H179.074ZM144.574 177L143.575 176.958L143.531 178H144.574V177ZM144.574 60.3V59.3H143.533L143.575 60.3406L144.574 60.3ZM179.074 60.3H180.074V59.3H179.074V60.3ZM179.074 123.9H178.074V126.349L179.789 124.6L179.074 123.9ZM206.524 94.95V93.95H206.084L205.786 94.275L206.524 94.95ZM249.801 94.2109L212.601 128.111L213.948 129.589L251.148 95.6891L249.801 94.2109ZM212.457 129.427C225.164 147.437 237.024 163.5 248.036 177.615L249.613 176.385C238.624 162.3 226.784 146.263 214.091 128.273L212.457 129.427ZM248.824 176H209.074V178H248.824V176ZM209.923 176.472L202.273 164.172L200.575 165.228L208.225 177.528L209.923 176.472ZM202.281 164.184C197.282 155.887 193.975 150.475 192.366 147.961L190.682 149.039C192.273 151.525 195.566 156.913 200.568 165.216L202.281 164.184ZM190.849 147.762L178.399 159.162L179.75 160.638L192.2 149.238L190.849 147.762ZM178.074 159.9V177H180.074V159.9H178.074ZM179.074 176H144.574V178H179.074V176ZM145.573 177.042C146.374 158.028 146.774 138.764 146.774 119.25H144.774C144.774 138.736 144.374 157.972 143.575 176.958L145.573 177.042ZM146.774 119.25C146.774 99.6364 146.374 79.9729 145.573 60.2594L143.575 60.3406C144.374 80.0271 144.774 99.6636 144.774 119.25H146.774ZM144.574 61.3H179.074V59.3H144.574V61.3ZM178.074 60.3V123.9H180.074V60.3H178.074ZM179.789 124.6C189.496 114.692 198.654 105.034 207.262 95.625L205.786 94.275C197.195 103.666 188.053 113.308 178.36 123.2L179.789 124.6ZM206.524 95.95H250.474V93.95H206.524V95.95ZM262.488 81.6L261.77 82.2954L261.775 82.3013L261.781 82.3071L262.488 81.6ZM262.488 57.3L261.77 56.6042L261.764 56.6101L261.759 56.6161L262.488 57.3ZM290.388 57.45L289.67 58.1461L289.676 58.1517L289.681 58.1571L290.388 57.45ZM290.538 81.6L291.245 82.3071L291.245 82.3071L290.538 81.6ZM259.188 177L258.189 176.957L258.144 178H259.188V177ZM259.038 95.1V94.1H257.985L258.04 95.1515L259.038 95.1ZM295.038 95.1L296.037 95.1536L296.093 94.1H295.038V95.1ZM294.888 177V178H295.934L295.887 176.955L294.888 177ZM276.588 85.25C270.437 85.25 266.039 83.7365 263.195 80.8929L261.781 82.3071C265.138 85.6635 270.14 87.25 276.588 87.25V85.25ZM263.207 80.9046C260.416 78.0207 258.988 74.2349 258.988 69.45H256.988C256.988 74.6651 258.56 78.9792 261.77 82.2954L263.207 80.9046ZM258.988 69.45C258.988 64.7718 260.412 60.9763 263.218 57.9839L261.759 56.6161C258.564 60.0236 256.988 64.3282 256.988 69.45H258.988ZM263.207 57.9958C266.051 55.0591 270.445 53.5 276.588 53.5V51.5C270.131 51.5 265.125 53.1409 261.77 56.6042L263.207 57.9958ZM276.588 53.5C282.404 53.5 286.711 55.0947 289.67 58.1461L291.106 56.7538C287.665 53.2053 282.772 51.5 276.588 51.5V53.5ZM289.681 58.1571C292.681 61.1573 294.188 64.8974 294.188 69.45H296.188C296.188 64.4026 294.495 60.1427 291.095 56.7429L289.681 58.1571ZM294.188 69.45C294.188 74.2253 292.717 78.0072 289.831 80.8929L291.245 82.3071C294.56 78.9927 296.188 74.6747 296.188 69.45H294.188ZM289.831 80.8929C286.985 83.7392 282.634 85.25 276.588 85.25V87.25C282.942 87.25 287.892 85.6608 291.245 82.3071L289.831 80.8929ZM260.187 177.043C260.888 160.936 261.238 147.62 261.238 137.1H259.238C259.238 147.58 258.889 160.864 258.189 176.957L260.187 177.043ZM261.238 137.1C261.238 124.579 260.838 110.562 260.037 95.0485L258.04 95.1515C258.839 110.638 259.238 124.621 259.238 137.1H261.238ZM259.038 96.1H295.038V94.1H259.038V96.1ZM294.04 95.0464C293.239 109.962 292.838 123.98 292.838 137.1H294.838C294.838 124.02 295.238 110.038 296.037 95.1536L294.04 95.0464ZM292.838 137.1C292.838 148.12 293.189 161.436 293.889 177.045L295.887 176.955C295.188 161.364 294.838 148.08 294.838 137.1H292.838ZM294.888 176H259.188V178H294.888V176ZM343.887 117L344.887 117.017L344.887 116.998L344.887 116.979L343.887 117ZM344.037 177V178H345.067L345.036 176.97L344.037 177ZM308.637 177L307.637 176.991L307.628 178H308.637V177ZM308.787 160.05L307.787 160.039L307.787 160.041L308.787 160.05ZM308.787 76.2L307.787 76.2093L307.787 76.2114L308.787 76.2ZM308.637 60V59H307.627L307.637 60.0093L308.637 60ZM344.037 60L345.037 60.0141L345.051 59H344.037V60ZM342.887 116.983C342.787 122.992 342.737 132.199 342.737 144.6H344.737C344.737 132.201 344.787 123.008 344.887 117.017L342.887 116.983ZM342.737 144.6C342.737 159.501 342.837 170.314 343.037 177.03L345.036 176.97C344.837 170.286 344.737 159.499 344.737 144.6H342.737ZM344.037 176H308.637V178H344.037V176ZM309.637 177.009L309.787 160.059L307.787 160.041L307.637 176.991L309.637 177.009ZM309.787 160.061C309.987 141.46 310.087 127.105 310.087 117H308.087C308.087 127.095 307.987 141.44 307.787 160.039L309.787 160.061ZM310.087 117C310.087 107.394 309.987 93.7899 309.787 76.1886L307.787 76.2114C307.987 93.8101 308.087 107.406 308.087 117H310.087ZM309.787 76.1907L309.637 59.9907L307.637 60.0093L307.787 76.2093L309.787 76.1907ZM308.637 61H344.037V59H308.637V61ZM343.037 59.9859C342.837 74.1883 342.737 85.7934 342.737 94.8H344.737C344.737 85.8066 344.837 74.2117 345.037 60.0141L343.037 59.9859ZM342.737 94.8C342.737 104.801 342.787 112.21 342.887 117.021L344.887 116.979C344.787 112.19 344.737 104.799 344.737 94.8H342.737ZM391.348 117L392.348 117.017L392.348 116.998L392.347 116.979L391.348 117ZM391.498 177V178H392.528L392.497 176.97L391.498 177ZM356.098 177L355.098 176.991L355.089 178H356.098V177ZM356.248 160.05L355.248 160.039L355.248 160.041L356.248 160.05ZM356.248 76.2L355.248 76.2093L355.248 76.2114L356.248 76.2ZM356.098 60V59H355.088L355.098 60.0093L356.098 60ZM391.498 60L392.498 60.0141L392.512 59H391.498V60ZM390.348 116.983C390.248 122.992 390.198 132.199 390.198 144.6H392.198C392.198 132.201 392.248 123.008 392.348 117.017L390.348 116.983ZM390.198 144.6C390.198 159.501 390.298 170.314 390.498 177.03L392.497 176.97C392.298 170.286 392.198 159.499 392.198 144.6H390.198ZM391.498 176H356.098V178H391.498V176ZM357.098 177.009L357.248 160.059L355.248 160.041L355.098 176.991L357.098 177.009ZM357.248 160.061C357.448 141.46 357.548 127.105 357.548 117H355.548C355.548 127.095 355.448 141.44 355.248 160.039L357.248 160.061ZM357.548 117C357.548 107.394 357.448 93.7899 357.248 76.1886L355.248 76.2114C355.448 93.8101 355.548 107.406 355.548 117H357.548ZM357.248 76.1907L357.098 59.9907L355.098 60.0093L355.248 76.2093L357.248 76.1907ZM356.098 61H391.498V59H356.098V61ZM390.498 59.9859C390.298 74.1883 390.198 85.7934 390.198 94.8H392.198C392.198 85.8066 392.298 74.2117 392.498 60.0141L390.498 59.9859ZM390.198 94.8C390.198 104.801 390.248 112.21 390.348 117.021L392.347 116.979C392.248 112.19 392.198 104.799 392.198 94.8H390.198ZM426.359 175.05L426.09 176.013L426.103 176.017L426.359 175.05ZM402.059 164.25L401.253 163.658L400.618 164.523L401.525 165.095L402.059 164.25ZM417.809 142.8L418.392 141.987L417.588 141.411L417.003 142.208L417.809 142.8ZM434.459 150.6L434.178 151.56L434.185 151.562L434.192 151.564L434.459 150.6ZM461.609 151.5L462.056 152.394L462.063 152.391L462.07 152.387L461.609 151.5ZM454.109 141.6L454.05 140.602L454.046 140.602L454.109 141.6ZM450.209 141.9L450.109 140.905L450.102 140.906L450.094 140.907L450.209 141.9ZM412.409 137.85L411.883 138.701L411.892 138.706L411.901 138.712L412.409 137.85ZM416.609 100.95L417.109 101.816L417.117 101.811L416.609 100.95ZM477.059 97.05L476.782 98.0111L476.789 98.0131L476.796 98.015L477.059 97.05ZM498.509 107.1L499.219 107.804L500.04 106.976L499.096 106.291L498.509 107.1ZM481.259 124.5L480.793 125.385L481.448 125.73L481.969 125.204L481.259 124.5ZM465.209 118.2L464.952 119.167L464.964 119.17L464.975 119.172L465.209 118.2ZM441.359 118.35L440.87 117.477L440.87 117.477L441.359 118.35ZM439.109 126.45L438.484 127.231L438.502 127.245L438.52 127.259L439.109 126.45ZM450.359 127.2L450.29 126.202L450.275 126.203L450.259 126.205L450.359 127.2ZM490.859 131.7L491.382 130.848L491.382 130.848L490.859 131.7ZM486.809 171.3L487.305 172.168L487.312 172.164L486.809 171.3ZM452.009 177.5C443.701 177.5 435.237 176.363 426.614 174.083L426.103 176.017C434.88 178.337 443.516 179.5 452.009 179.5V177.5ZM426.627 174.087C418.122 171.713 410.111 168.153 402.593 163.405L401.525 165.095C409.206 169.947 417.396 173.587 426.09 176.013L426.627 174.087ZM402.865 164.842L418.615 143.392L417.003 142.208L401.253 163.658L402.865 164.842ZM417.226 143.613C421.933 146.99 427.59 149.634 434.178 151.56L434.739 149.64C428.327 147.766 422.884 145.21 418.392 141.987L417.226 143.613ZM434.192 151.564C440.744 153.378 446.439 154.3 451.259 154.3V152.3C446.679 152.3 441.173 151.422 434.725 149.636L434.192 151.564ZM451.259 154.3C455.822 154.3 459.453 153.696 462.056 152.394L461.161 150.606C458.964 151.704 455.695 152.3 451.259 152.3V154.3ZM462.07 152.387C464.747 150.995 466.359 149.069 466.359 146.55H464.359C464.359 148.031 463.47 149.405 461.147 150.613L462.07 152.387ZM466.359 146.55C466.359 144.66 465.629 143.103 464.159 142L462.959 143.6C463.888 144.297 464.359 145.24 464.359 146.55H466.359ZM464.159 142C462.728 140.927 460.841 140.45 458.609 140.45V142.45C460.577 142.45 461.989 142.873 462.959 143.6L464.159 142ZM458.609 140.45C457.284 140.45 455.764 140.501 454.05 140.602L454.167 142.598C455.853 142.499 457.333 142.45 458.609 142.45V140.45ZM454.046 140.602C452.44 140.702 451.126 140.803 450.109 140.905L450.308 142.895C451.291 142.797 452.577 142.698 454.171 142.598L454.046 140.602ZM450.094 140.907C444.934 141.502 439.622 141.8 434.159 141.8V143.8C439.695 143.8 445.083 143.498 450.323 142.893L450.094 140.907ZM434.159 141.8C425.374 141.8 418.316 140.17 412.916 136.988L411.901 138.712C417.701 142.13 425.143 143.8 434.159 143.8V141.8ZM412.934 136.999C407.785 133.816 405.159 128.675 405.159 121.35H403.159C403.159 129.225 406.032 135.084 411.883 138.701L412.934 136.999ZM405.159 121.35C405.159 112.944 409.085 106.456 417.109 101.816L416.108 100.084C407.533 105.044 403.159 112.156 403.159 121.35H405.159ZM417.117 101.811C425.192 97.0441 437.181 94.6 453.209 94.6V92.6C437.036 92.6 424.625 95.0559 416.1 100.089L417.117 101.811ZM453.209 94.6C461.01 94.6 468.867 95.7355 476.782 98.0111L477.335 96.0889C469.25 93.7645 461.207 92.6 453.209 92.6V94.6ZM476.796 98.015C484.791 100.186 491.828 103.487 497.921 107.909L499.096 106.291C492.789 101.713 485.526 98.3137 477.321 96.085L476.796 98.015ZM497.798 106.396L480.548 123.796L481.969 125.204L499.219 107.804L497.798 106.396ZM481.724 123.615C475.968 120.586 470.54 118.451 465.442 117.228L464.975 119.172C469.877 120.349 475.149 122.414 480.793 125.385L481.724 123.615ZM465.465 117.233C460.483 115.912 455.446 115.25 450.359 115.25V117.25C455.271 117.25 460.135 117.888 464.952 119.167L465.465 117.233ZM450.359 115.25C446.725 115.25 443.549 115.977 440.87 117.477L441.847 119.223C444.168 117.923 446.992 117.25 450.359 117.25V115.25ZM440.87 117.477C438.253 118.943 436.609 120.806 436.609 123.15H438.609C438.609 121.894 439.464 120.557 441.847 119.223L440.87 117.477ZM436.609 123.15C436.609 124.821 437.223 126.222 438.484 127.231L439.733 125.669C438.995 125.078 438.609 124.279 438.609 123.15H436.609ZM438.52 127.259C439.83 128.211 441.451 128.65 443.309 128.65V126.65C441.767 126.65 440.587 126.289 439.697 125.641L438.52 127.259ZM443.309 128.65C445.058 128.65 447.446 128.496 450.458 128.195L450.259 126.205C447.271 126.504 444.959 126.65 443.309 126.65V128.65ZM450.427 128.198C457.722 127.698 463.144 127.45 466.709 127.45V125.45C463.073 125.45 457.595 125.702 450.29 126.202L450.427 128.198ZM466.709 127.45C477.018 127.45 484.857 129.188 490.335 132.552L491.382 130.848C485.46 127.212 477.199 125.45 466.709 125.45V127.45ZM490.335 132.552C495.713 135.854 498.409 140.866 498.409 147.75H500.409C500.409 140.234 497.404 134.546 491.382 130.848L490.335 132.552ZM498.409 147.75C498.409 158.242 494.359 165.738 486.305 170.436L487.312 172.164C496.059 167.062 500.409 158.858 500.409 147.75H498.409ZM486.312 170.432C478.123 175.111 466.719 177.5 452.009 177.5V179.5C466.898 179.5 478.694 177.089 487.305 172.168L486.312 170.432Z" fill="#003CFF" fill-opacity="0.4"/>
<path d="M200 313.1L199.168 312.545L198.545 313.48L199.545 313.991L200 313.1ZM208.4 298.85L207.514 298.387L207.51 298.395L207.506 298.403L208.4 298.85ZM215 283.55L215.5 282.684L214.466 282.087L214.06 283.21L215 283.55ZM239.75 293.15L239.512 294.121L239.512 294.121L239.75 293.15ZM283.55 294.5L283.931 295.425L283.942 295.42L283.954 295.415L283.55 294.5ZM216.35 274.25L215.927 275.156L215.935 275.16L216.35 274.25ZM219.35 223.7L219.846 224.568L219.846 224.568L219.35 223.7ZM294.95 218.15L294.71 219.121L294.72 219.123L294.95 218.15ZM324.65 228.95L325.566 229.352L325.941 228.497L325.113 228.064L324.65 228.95ZM315.5 253.1L314.552 252.781L314.547 252.797L314.542 252.813L315.5 253.1ZM314 257.6L313.373 258.379L314.427 259.226L314.928 257.971L314 257.6ZM290.9 247.4L290.638 248.365L290.646 248.367L290.9 247.4ZM244.4 245.15L244.742 246.09L244.754 246.085L244.767 246.08L244.4 245.15ZM246.2 256.4L245.884 257.349L245.896 257.353L245.909 257.357L246.2 256.4ZM312.2 265.85L311.745 266.741L311.753 266.744L312.2 265.85ZM311.3 318.35L311.813 319.208L311.819 319.205L311.3 318.35ZM231.05 323.9L230.838 324.877L230.846 324.879L231.05 323.9ZM200.832 313.655C204.25 308.528 207.072 303.742 209.294 299.297L207.506 298.403C205.328 302.758 202.55 307.472 199.168 312.545L200.832 313.655ZM209.286 299.313C211.611 294.865 213.829 289.723 215.94 283.89L214.06 283.21C211.971 288.977 209.789 294.035 207.514 298.387L209.286 299.313ZM214.5 284.416C221.695 288.571 230.036 291.803 239.512 294.121L239.988 292.179C230.664 289.897 222.505 286.729 215.5 282.684L214.5 284.416ZM239.512 294.121C248.976 296.437 257.806 297.6 266 297.6V295.6C257.994 295.6 249.324 294.463 239.988 292.179L239.512 294.121ZM266 297.6C274.307 297.6 280.333 296.906 283.931 295.425L283.169 293.575C279.967 294.894 274.293 295.6 266 295.6V297.6ZM283.954 295.415C285.704 294.643 287.094 293.813 288.06 292.903C289.034 291.987 289.65 290.916 289.65 289.7H287.65C287.65 290.184 287.416 290.763 286.69 291.447C285.956 292.137 284.796 292.857 283.146 293.585L283.954 295.415ZM289.65 289.7C289.65 285.976 286.758 283.452 281.987 281.887C277.182 280.312 270.079 279.55 260.75 279.55V281.55C270.021 281.55 276.868 282.313 281.363 283.788C285.892 285.273 287.65 287.324 287.65 289.7H289.65ZM260.75 279.55C240.377 279.55 225.759 277.446 216.765 273.34L215.935 275.16C225.341 279.454 240.323 281.55 260.75 281.55V279.55ZM216.773 273.344C212.302 271.254 209.01 268.562 206.832 265.295C204.657 262.033 203.55 258.132 203.55 253.55H201.55C201.55 258.468 202.743 262.767 205.168 266.405C207.59 270.038 211.198 272.946 215.927 275.156L216.773 273.344ZM203.55 253.55C203.55 240.388 208.975 230.78 219.846 224.568L218.854 222.832C207.325 229.42 201.55 239.712 201.55 253.55H203.55ZM219.846 224.568C230.848 218.282 245.21 215.1 263 215.1V213.1C244.99 213.1 230.252 216.318 218.854 222.832L219.846 224.568ZM263 215.1C273.313 215.1 283.882 216.439 294.71 219.121L295.19 217.179C284.218 214.461 273.487 213.1 263 213.1V215.1ZM294.72 219.123C305.65 221.707 315.47 225.28 324.187 229.836L325.113 228.064C316.23 223.42 306.25 219.793 295.18 217.177L294.72 219.123ZM323.734 228.548C320.819 235.183 317.758 243.263 314.552 252.781L316.448 253.419C319.642 243.937 322.681 235.917 325.566 229.352L323.734 228.548ZM314.542 252.813C313.944 254.805 313.455 256.271 313.072 257.229L314.928 257.971C315.345 256.929 315.856 255.395 316.458 253.387L314.542 252.813ZM314.627 256.821C309.369 252.594 301.515 249.149 291.154 246.433L290.646 248.367C300.885 251.051 308.431 254.406 313.373 258.379L314.627 256.821ZM291.162 246.435C280.805 243.619 271.613 242.2 263.6 242.2V244.2C271.387 244.2 280.395 245.581 290.638 248.365L291.162 246.435ZM263.6 242.2C258.831 242.2 254.819 242.363 251.574 242.693C248.344 243.021 245.811 243.519 244.033 244.22L244.767 246.08C246.289 245.481 248.606 245.004 251.776 244.682C254.931 244.362 258.869 244.2 263.6 244.2V242.2ZM244.058 244.21C242.319 244.843 240.921 245.665 239.95 246.724C238.96 247.805 238.45 249.095 238.45 250.55H240.45C240.45 249.605 240.765 248.795 241.425 248.076C242.104 247.335 243.181 246.657 244.742 246.09L244.058 244.21ZM238.45 250.55C238.45 252.108 239.196 253.453 240.483 254.568C241.748 255.665 243.575 256.579 245.884 257.349L246.516 255.451C244.325 254.721 242.777 253.91 241.792 253.057C240.829 252.222 240.45 251.392 240.45 250.55H238.45ZM245.909 257.357C250.65 258.8 257.366 259.5 266 259.5V257.5C257.434 257.5 250.95 256.8 246.491 255.443L245.909 257.357ZM266 259.5C287.167 259.5 302.366 261.953 311.745 266.741L312.655 264.959C302.834 259.947 287.233 257.5 266 257.5V259.5ZM311.753 266.744C316.428 269.082 319.877 272.023 322.161 275.544C324.442 279.061 325.6 283.217 325.6 288.05H327.6C327.6 282.883 326.358 278.339 323.839 274.456C321.323 270.577 317.572 267.418 312.647 264.956L311.753 266.744ZM325.6 288.05C325.6 301.772 320.626 311.511 310.781 317.495L311.819 319.205C322.374 312.789 327.6 302.328 327.6 288.05H325.6ZM310.787 317.492C300.818 323.453 285.586 326.5 264.95 326.5V328.5C285.714 328.5 301.382 325.447 311.813 319.208L310.787 317.492ZM264.95 326.5C253.923 326.5 242.691 325.308 231.254 322.921L230.846 324.879C242.409 327.292 253.777 328.5 264.95 328.5V326.5ZM231.262 322.923C219.835 320.439 209.568 316.865 200.455 312.209L199.545 313.991C208.832 318.735 219.265 322.361 230.838 324.877L231.262 322.923ZM406.524 270.95L406.459 271.948L407.524 272.017V270.95H406.524ZM381.324 269.6L381.364 268.601L380.334 268.56L380.324 269.591L381.324 269.6ZM381.174 285.5L380.174 285.491V285.5H381.174ZM384.624 298.25L383.821 298.846L383.832 298.86L383.843 298.875L384.624 298.25ZM403.824 302.15L404.818 302.257L404.964 300.915L403.637 301.168L403.824 302.15ZM403.524 325.7L403.703 326.684L404.551 326.53L404.524 325.669L403.524 325.7ZM355.824 319.1L355.059 319.744L355.065 319.751L355.072 319.759L355.824 319.1ZM348.624 295.4L347.624 295.394V295.4H348.624ZM348.774 270.05L349.774 270.056L349.78 269.006L348.732 269.051L348.774 270.05ZM334.074 270.95H333.074V272.032L334.152 271.947L334.074 270.95ZM334.074 244.4V243.4H333.074V244.4H334.074ZM347.274 239.45L347.95 240.187L347.95 240.187L347.274 239.45ZM353.724 227.6V226.6H352.865L352.736 227.45L353.724 227.6ZM394.524 227.6L395.332 228.189L396.49 226.6H394.524V227.6ZM377.574 244.4L377.013 243.572L374.315 245.4H377.574V244.4ZM406.524 244.4H407.524V243.4H406.524V244.4ZM406.589 269.952C397.382 269.352 388.974 268.901 381.364 268.601L381.285 270.599C388.875 270.899 397.266 271.348 406.459 271.948L406.589 269.952ZM380.324 269.591L380.174 285.491L382.174 285.509L382.324 269.609L380.324 269.591ZM380.174 285.5C380.174 291.031 381.351 295.517 383.821 298.846L385.427 297.654C383.297 294.783 382.174 290.769 382.174 285.5H380.174ZM383.843 298.875C386.519 302.22 391.092 303.75 397.224 303.75V301.75C391.356 301.75 387.529 300.28 385.405 297.625L383.843 298.875ZM397.224 303.75C399.582 303.75 401.845 303.545 404.011 303.132L403.637 301.168C401.603 301.555 399.466 301.75 397.224 301.75V303.75ZM402.83 302.043C402.426 305.779 402.224 309.565 402.224 313.4H404.224C404.224 309.635 404.422 305.921 404.818 302.257L402.83 302.043ZM402.224 313.4C402.224 315.219 402.325 319.336 402.525 325.731L404.524 325.669C404.324 319.264 404.224 315.181 404.224 313.4H402.224ZM403.345 324.716C398.966 325.512 395.307 326.006 392.358 326.202L392.491 328.198C395.542 327.994 399.282 327.488 403.703 326.684L403.345 324.716ZM392.358 326.202C389.389 326.4 385.513 326.5 380.724 326.5V328.5C385.535 328.5 389.46 328.4 392.491 328.198L392.358 326.202ZM380.724 326.5C369.149 326.5 361.201 323.726 356.577 318.441L355.072 319.759C360.248 325.674 368.899 328.5 380.724 328.5V326.5ZM356.589 318.456C351.987 312.991 349.624 305.348 349.624 295.4H347.624C347.624 305.652 350.061 313.809 355.059 319.744L356.589 318.456ZM349.624 295.406L349.774 270.056L347.774 270.044L347.624 295.394L349.624 295.406ZM348.732 269.051C344.019 269.251 339.107 269.552 333.996 269.953L334.152 271.947C339.242 271.548 344.13 271.249 348.817 271.049L348.732 269.051ZM335.074 270.95V244.4H333.074V270.95H335.074ZM334.074 245.4C339.507 245.4 344.153 243.668 347.95 240.187L346.598 238.713C343.196 241.832 339.042 243.4 334.074 243.4V245.4ZM347.95 240.187C351.709 236.741 353.977 232.588 354.713 227.75L352.736 227.45C352.072 231.812 350.039 235.559 346.598 238.713L347.95 240.187ZM353.724 228.6H394.524V226.6H353.724V228.6ZM393.716 227.011C388.674 233.932 383.104 239.446 377.013 243.572L378.135 245.228C384.444 240.954 390.175 235.268 395.332 228.189L393.716 227.011ZM377.574 245.4H406.524V243.4H377.574V245.4ZM405.524 244.4V270.95H407.524V244.4H405.524ZM512.829 308.3L511.96 308.796L511.96 308.796L512.829 308.3ZM517.629 311.3L518.628 311.343L518.662 310.528L517.871 310.33L517.629 311.3ZM517.029 325.4L517.183 326.388L517.993 326.261L518.028 325.443L517.029 325.4ZM508.629 326.45L508.545 325.453L508.542 325.454L508.629 326.45ZM482.229 321.05L481.416 321.633L481.423 321.643L482.229 321.05ZM478.029 302.45H479.029L477.086 302.117L478.029 302.45ZM465.279 320.75L464.697 319.936L464.69 319.941L465.279 320.75ZM421.479 320.75L420.854 321.531L420.861 321.537L421.479 320.75ZM420.429 287.6L421.081 288.358L421.081 288.358L420.429 287.6ZM440.379 279.95L440.532 280.938L442.963 280.56L440.958 279.135L440.379 279.95ZM417.579 265.85L416.794 265.23L416.048 266.175L417.113 266.735L417.579 265.85ZM438.129 248.6L438.58 249.492L438.59 249.487L438.129 248.6ZM500.379 252.65L499.707 253.391L499.718 253.401L500.379 252.65ZM455.829 271.55L456.228 272.467L456.228 272.467L455.829 271.55ZM445.329 279.2L444.59 278.526L442.787 280.503L445.444 280.193L445.329 279.2ZM475.629 276.8L475.114 275.943L475.114 275.943L475.629 276.8ZM475.629 270.35L475.114 271.207L475.136 271.22L475.158 271.232L475.629 270.35ZM468.729 299.15L469.151 300.056L469.16 300.052L469.168 300.048L468.729 299.15ZM478.029 290.6L478.928 291.037L479.029 290.83V290.6H478.029ZM478.029 286.7H479.029V285.082L477.581 285.806L478.029 286.7ZM470.079 289.55L470.281 290.529L470.297 290.526L470.313 290.522L470.079 289.55ZM459.579 291.35L459.434 290.361L459.424 290.362L459.414 290.364L459.579 291.35ZM454.179 292.25L454.014 291.264L454 291.266L453.986 291.269L454.179 292.25ZM510.629 301.1C510.629 304.521 511.021 307.152 511.96 308.796L513.697 307.804C513.036 306.648 512.629 304.479 512.629 301.1H510.629ZM511.96 308.796C512.953 310.534 514.861 311.639 517.386 312.27L517.871 310.33C515.596 309.761 514.304 308.866 513.697 307.804L511.96 308.796ZM516.629 311.257L516.029 325.357L518.028 325.443L518.628 311.343L516.629 311.257ZM516.874 324.412C513.69 324.909 510.915 325.256 508.545 325.453L508.712 327.447C511.142 327.244 513.967 326.891 517.183 326.388L516.874 324.412ZM508.542 325.454C506.284 325.65 503.216 325.75 499.329 325.75V327.75C503.241 327.75 506.373 327.65 508.715 327.446L508.542 325.454ZM499.329 325.75C490.797 325.75 485.535 323.851 483.034 320.457L481.423 321.643C484.522 325.849 490.66 327.75 499.329 327.75V325.75ZM483.041 320.467C480.39 316.775 479.029 312.044 479.029 306.2H477.029C477.029 312.356 478.467 317.525 481.416 321.633L483.041 320.467ZM479.029 306.2V302.45H477.029V306.2H479.029ZM477.086 302.117C474.236 310.174 470.091 316.084 464.697 319.936L465.86 321.564C471.666 317.416 476.021 311.126 478.971 302.783L477.086 302.117ZM464.69 319.941C459.402 323.787 452.574 325.75 444.129 325.75V327.75C452.884 327.75 460.155 325.713 465.867 321.559L464.69 319.941ZM444.129 325.75C434.238 325.75 426.947 323.768 422.096 319.963L420.861 321.537C426.21 325.732 434.02 327.75 444.129 327.75V325.75ZM422.103 319.969C417.395 316.203 414.979 310.574 414.979 302.9H412.979C412.979 311.026 415.562 317.297 420.854 321.531L422.103 319.969ZM414.979 302.9C414.979 296.644 417.035 291.839 421.081 288.358L419.776 286.842C415.222 290.761 412.979 296.156 412.979 302.9H414.979ZM421.081 288.358C425.178 284.833 431.615 282.325 440.532 280.938L440.225 278.962C431.142 280.375 424.279 282.967 419.776 286.842L421.081 288.358ZM440.958 279.135C433.325 273.711 425.687 268.987 418.044 264.965L417.113 266.735C424.67 270.713 432.232 275.389 439.799 280.765L440.958 279.135ZM418.363 266.47C424.284 258.97 431.025 253.319 438.58 249.492L437.677 247.708C429.832 251.681 422.873 257.53 416.794 265.23L418.363 266.47ZM438.59 249.487C446.114 245.579 455.297 243.6 466.179 243.6V241.6C455.06 241.6 445.543 243.621 437.668 247.713L438.59 249.487ZM466.179 243.6C481.46 243.6 492.569 246.928 499.707 253.391L501.05 251.909C493.388 244.972 481.697 241.6 466.179 241.6V243.6ZM499.718 253.401C506.929 259.747 510.629 269.623 510.629 283.25H512.629C512.629 269.277 508.828 258.753 501.039 251.899L499.718 253.401ZM510.629 283.25V301.1H512.629V283.25H510.629ZM469.329 268C464.118 268 459.477 268.869 455.429 270.633L456.228 272.467C459.98 270.831 464.339 270 469.329 270V268ZM455.429 270.633C451.39 272.394 447.777 275.031 444.59 278.526L446.067 279.874C449.081 276.569 452.467 274.106 456.228 272.467L455.429 270.633ZM445.444 280.193C451.392 279.499 458.85 279.15 467.829 279.15V277.15C458.807 277.15 451.265 277.501 445.213 278.207L445.444 280.193ZM467.829 279.15C471.549 279.15 474.391 278.708 476.143 277.657L475.114 275.943C473.866 276.692 471.508 277.15 467.829 277.15V279.15ZM476.143 277.657C477.857 276.629 478.879 275.192 478.879 273.35H476.879C476.879 274.308 476.4 275.171 475.114 275.943L476.143 277.657ZM478.879 273.35C478.879 271.634 477.772 270.36 476.099 269.468L475.158 271.232C476.485 271.94 476.879 272.666 476.879 273.35H478.879ZM476.143 269.493C474.425 268.462 472.119 268 469.329 268V270C471.938 270 473.832 270.438 475.114 271.207L476.143 269.493ZM453.579 303.3C459.306 303.3 464.503 302.225 469.151 300.056L468.306 298.244C463.954 300.275 459.051 301.3 453.579 301.3V303.3ZM469.168 300.048C473.81 297.779 477.105 294.789 478.928 291.037L477.129 290.163C475.552 293.411 472.647 296.121 468.289 298.252L469.168 300.048ZM479.029 290.6V286.7H477.029V290.6H479.029ZM477.581 285.806C475.256 286.968 472.678 287.894 469.844 288.578L470.313 290.522C473.279 289.806 476.001 288.832 478.476 287.594L477.581 285.806ZM469.876 288.571C467.001 289.166 463.521 289.762 459.434 290.361L459.723 292.339C463.836 291.738 467.356 291.134 470.281 290.529L469.876 288.571ZM459.414 290.364L454.014 291.264L454.343 293.236L459.743 292.336L459.414 290.364ZM453.986 291.269C451.132 291.829 448.879 292.612 447.317 293.673C445.721 294.755 444.779 296.184 444.779 297.95H446.779C446.779 297.016 447.236 296.145 448.44 295.327C449.678 294.488 451.625 293.771 454.371 293.231L453.986 291.269ZM444.779 297.95C444.779 298.829 444.977 299.646 445.408 300.366C445.837 301.085 446.465 301.653 447.241 302.086C448.764 302.935 450.918 303.3 453.579 303.3V301.3C451.039 301.3 449.293 300.94 448.216 300.339C447.692 300.047 447.345 299.709 447.124 299.34C446.905 298.973 446.779 298.521 446.779 297.95H444.779ZM557.11 285.05L556.111 285.011L556.109 285.05L556.111 285.089L557.11 285.05ZM561.91 297.35L561.192 298.045L561.197 298.051L561.203 298.057L561.91 297.35ZM584.41 300.2L584.829 301.108L584.843 301.101L584.857 301.094L584.41 300.2ZM591.61 294.5L591.972 293.568L591.321 293.315L590.859 293.839L591.61 294.5ZM621.46 303.05L622.379 303.444L622.86 302.323L621.666 302.071L621.46 303.05ZM604.66 321.05L604.182 320.172L604.177 320.174L604.66 321.05ZM537.16 315.8L536.462 316.516L536.462 316.516L537.16 315.8ZM537.16 254.3L537.858 255.016L537.858 255.016L537.16 254.3ZM604.66 249.05L604.177 249.926L604.182 249.928L604.66 249.05ZM621.46 267.05L621.669 268.028L622.858 267.774L622.379 266.656L621.46 267.05ZM591.61 275.6L590.859 276.261L591.303 276.764L591.937 276.545L591.61 275.6ZM584.41 270.05L583.963 270.944L583.977 270.951L583.991 270.958L584.41 270.05ZM561.91 272.75L561.203 272.043L561.197 272.049L561.192 272.055L561.91 272.75ZM556.111 285.089C556.319 290.387 557.99 294.737 561.192 298.045L562.629 296.655C559.83 293.763 558.302 289.913 558.109 285.011L556.111 285.089ZM561.203 298.057C564.551 301.405 569.395 303 575.56 303V301C569.725 301 565.469 299.495 562.617 296.643L561.203 298.057ZM575.56 303C578.983 303 582.079 302.377 584.829 301.108L583.991 299.292C581.541 300.423 578.737 301 575.56 301V303ZM584.857 301.094C587.588 299.729 590.088 297.743 592.361 295.161L590.859 293.839C588.732 296.257 586.432 298.071 583.963 299.306L584.857 301.094ZM591.248 295.432C599.811 298.756 609.815 301.62 621.254 304.029L621.666 302.071C610.305 299.68 600.41 296.844 591.972 293.568L591.248 295.432ZM620.541 302.656C617.336 310.134 611.9 315.971 604.182 320.172L605.138 321.928C613.22 317.529 618.984 311.366 622.379 303.444L620.541 302.656ZM604.177 320.174C596.573 324.366 586.606 326.5 574.21 326.5V328.5C586.815 328.5 597.147 326.334 605.143 321.926L604.177 320.174ZM574.21 326.5C557.644 326.5 545.597 322.629 537.858 315.084L536.462 316.516C544.723 324.571 557.377 328.5 574.21 328.5V326.5ZM537.858 315.084C530.078 307.499 526.16 297.521 526.16 285.05H524.16C524.16 297.979 528.242 308.501 536.462 316.516L537.858 315.084ZM526.16 285.05C526.16 272.579 530.078 262.601 537.858 255.016L536.462 253.584C528.242 261.599 524.16 272.121 524.16 285.05H526.16ZM537.858 255.016C545.597 247.471 557.644 243.6 574.21 243.6V241.6C557.377 241.6 544.723 245.529 536.462 253.584L537.858 255.016ZM574.21 243.6C586.606 243.6 596.573 245.734 604.177 249.926L605.143 248.174C597.147 243.766 586.815 241.6 574.21 241.6V243.6ZM604.182 249.928C611.9 254.129 617.336 259.966 620.541 267.444L622.379 266.656C618.984 258.734 613.22 252.571 605.138 248.172L604.182 249.928ZM621.251 266.072C612.302 267.983 602.312 270.845 591.284 274.655L591.937 276.545C602.908 272.755 612.818 269.917 621.669 268.028L621.251 266.072ZM592.361 274.939C590.084 272.352 587.575 270.409 584.829 269.142L583.991 270.958C586.446 272.091 588.737 273.848 590.859 276.261L592.361 274.939ZM584.857 269.156C582.101 267.777 578.994 267.1 575.56 267.1V269.1C578.726 269.1 581.52 269.723 583.963 270.944L584.857 269.156ZM575.56 267.1C569.395 267.1 564.551 268.695 561.203 272.043L562.617 273.457C565.469 270.605 569.725 269.1 575.56 269.1V267.1ZM561.192 272.055C557.99 275.363 556.319 279.713 556.111 285.011L558.109 285.089C558.302 280.187 559.83 276.337 562.629 273.445L561.192 272.055ZM738.615 243.95L739.288 244.689L741.197 242.95H738.615V243.95ZM701.415 277.85L700.741 277.111L700.089 277.705L700.598 278.427L701.415 277.85ZM736.965 326V327H739.013L737.753 325.385L736.965 326ZM697.215 326L696.366 326.528L696.659 327H697.215V326ZM689.565 313.7L688.708 314.216L688.712 314.222L688.716 314.228L689.565 313.7ZM679.665 297.5L680.507 296.961L679.866 295.96L678.99 296.762L679.665 297.5ZM667.215 308.9L666.54 308.162L666.215 308.46V308.9H667.215ZM667.215 326V327H668.215V326H667.215ZM632.715 326L631.716 325.958L631.672 327H632.715V326ZM632.715 209.3V208.3H631.673L631.716 209.341L632.715 209.3ZM667.215 209.3H668.215V208.3H667.215V209.3ZM667.215 272.9H666.215V275.349L667.929 273.6L667.215 272.9ZM694.665 243.95V242.95H694.224L693.927 243.275L694.665 243.95ZM737.941 243.211L700.741 277.111L702.088 278.589L739.288 244.689L737.941 243.211ZM700.598 278.427C713.305 296.437 725.165 312.5 736.176 326.615L737.753 325.385C726.765 311.3 714.925 295.263 702.232 277.273L700.598 278.427ZM736.965 325H697.215V327H736.965V325ZM698.064 325.472L690.414 313.172L688.716 314.228L696.366 326.528L698.064 325.472ZM690.421 313.184C685.423 304.887 682.116 299.475 680.507 296.961L678.823 298.039C680.414 300.525 683.707 305.913 688.708 314.216L690.421 313.184ZM678.99 296.762L666.54 308.162L667.89 309.638L680.34 298.238L678.99 296.762ZM666.215 308.9V326H668.215V308.9H666.215ZM667.215 325H632.715V327H667.215V325ZM633.714 326.042C634.515 307.028 634.915 287.764 634.915 268.25H632.915C632.915 287.736 632.515 306.972 631.716 325.958L633.714 326.042ZM634.915 268.25C634.915 248.636 634.515 228.973 633.714 209.259L631.716 209.341C632.515 229.027 632.915 248.664 632.915 268.25H634.915ZM632.715 210.3H667.215V208.3H632.715V210.3ZM666.215 209.3V272.9H668.215V209.3H666.215ZM667.929 273.6C677.636 263.692 686.794 254.034 695.403 244.625L693.927 243.275C685.335 252.666 676.193 262.308 666.501 272.2L667.929 273.6ZM694.665 244.95H738.615V242.95H694.665V244.95ZM767.429 324.05L767.16 325.013L767.173 325.017L767.429 324.05ZM743.129 313.25L742.323 312.658L741.688 313.523L742.595 314.095L743.129 313.25ZM758.879 291.8L759.462 290.987L758.658 290.411L758.073 291.208L758.879 291.8ZM775.529 299.6L775.248 300.56L775.255 300.562L775.262 300.564L775.529 299.6ZM802.679 300.5L803.126 301.394L803.133 301.391L803.14 301.387L802.679 300.5ZM795.179 290.6L795.12 289.602L795.117 289.602L795.179 290.6ZM791.279 290.9L791.179 289.905L791.172 289.906L791.164 289.907L791.279 290.9ZM753.479 286.85L752.953 287.701L752.962 287.706L752.971 287.712L753.479 286.85ZM757.679 249.95L758.18 250.816L758.187 250.811L757.679 249.95ZM818.129 246.05L817.853 247.011L817.86 247.013L817.867 247.015L818.129 246.05ZM839.579 256.1L840.289 256.804L841.11 255.976L840.166 255.291L839.579 256.1ZM822.329 273.5L821.863 274.385L822.518 274.73L823.039 274.204L822.329 273.5ZM806.279 267.2L806.022 268.167L806.034 268.17L806.046 268.172L806.279 267.2ZM782.429 267.35L781.94 266.477L781.94 266.477L782.429 267.35ZM780.179 275.45L779.554 276.231L779.572 276.245L779.591 276.259L780.179 275.45ZM791.429 276.2L791.361 275.202L791.345 275.203L791.329 275.205L791.429 276.2ZM831.929 280.7L832.452 279.848L832.452 279.848L831.929 280.7ZM827.879 320.3L828.375 321.168L828.383 321.164L827.879 320.3ZM793.079 326.5C784.771 326.5 776.307 325.363 767.684 323.083L767.173 325.017C775.951 327.337 784.587 328.5 793.079 328.5V326.5ZM767.698 323.087C759.192 320.713 751.181 317.153 743.663 312.405L742.595 314.095C750.277 318.947 758.466 322.587 767.16 325.013L767.698 323.087ZM743.935 313.842L759.685 292.392L758.073 291.208L742.323 312.658L743.935 313.842ZM758.296 292.613C763.004 295.99 768.661 298.634 775.248 300.56L775.809 298.64C769.397 296.766 763.954 294.21 759.462 290.987L758.296 292.613ZM775.262 300.564C781.815 302.378 787.509 303.3 792.329 303.3V301.3C787.749 301.3 782.243 300.422 775.796 298.636L775.262 300.564ZM792.329 303.3C796.892 303.3 800.523 302.696 803.126 301.394L802.232 299.606C800.034 300.704 796.766 301.3 792.329 301.3V303.3ZM803.14 301.387C805.817 299.995 807.429 298.069 807.429 295.55H805.429C805.429 297.031 804.54 298.405 802.218 299.613L803.14 301.387ZM807.429 295.55C807.429 293.66 806.7 292.103 805.229 291L804.029 292.6C804.958 293.297 805.429 294.24 805.429 295.55H807.429ZM805.229 291C803.799 289.927 801.911 289.45 799.679 289.45V291.45C801.647 291.45 803.059 291.873 804.029 292.6L805.229 291ZM799.679 289.45C798.354 289.45 796.834 289.501 795.12 289.602L795.238 291.598C796.924 291.499 798.403 291.45 799.679 291.45V289.45ZM795.117 289.602C793.51 289.702 792.197 289.803 791.179 289.905L791.378 291.895C792.361 291.797 793.647 291.698 795.241 291.598L795.117 289.602ZM791.164 289.907C786.004 290.502 780.693 290.8 775.229 290.8V292.8C780.765 292.8 786.154 292.498 791.394 291.893L791.164 289.907ZM775.229 290.8C766.444 290.8 759.386 289.17 753.987 285.988L752.971 287.712C758.772 291.13 766.214 292.8 775.229 292.8V290.8ZM754.005 285.999C748.855 282.816 746.229 277.675 746.229 270.35H744.229C744.229 278.225 747.102 284.084 752.953 287.701L754.005 285.999ZM746.229 270.35C746.229 261.944 750.155 255.456 758.18 250.816L757.178 249.084C748.603 254.044 744.229 261.156 744.229 270.35H746.229ZM758.187 250.811C766.262 246.044 778.251 243.6 794.279 243.6V241.6C778.106 241.6 765.696 244.056 757.171 249.089L758.187 250.811ZM794.279 243.6C802.081 243.6 809.938 244.735 817.853 247.011L818.405 245.089C810.32 242.764 802.277 241.6 794.279 241.6V243.6ZM817.867 247.015C825.861 249.186 832.899 252.487 838.992 256.909L840.166 255.291C833.859 250.713 826.597 247.314 818.391 245.085L817.867 247.015ZM838.869 255.396L821.619 272.796L823.039 274.204L840.289 256.804L838.869 255.396ZM822.795 272.615C817.039 269.586 811.61 267.451 806.512 266.228L806.046 268.172C810.947 269.349 816.219 271.414 821.863 274.385L822.795 272.615ZM806.535 266.233C801.553 264.912 796.517 264.25 791.429 264.25V266.25C796.341 266.25 801.205 266.888 806.022 268.167L806.535 266.233ZM791.429 264.25C787.795 264.25 784.619 264.977 781.94 266.477L782.918 268.223C785.239 266.923 788.062 266.25 791.429 266.25V264.25ZM781.94 266.477C779.324 267.943 777.679 269.806 777.679 272.15H779.679C779.679 270.894 780.534 269.557 782.918 268.223L781.94 266.477ZM777.679 272.15C777.679 273.821 778.293 275.222 779.554 276.231L780.804 274.669C780.065 274.078 779.679 273.279 779.679 272.15H777.679ZM779.591 276.259C780.9 277.211 782.521 277.65 784.379 277.65V275.65C782.837 275.65 781.658 275.289 780.767 274.641L779.591 276.259ZM784.379 277.65C786.128 277.65 788.516 277.496 791.528 277.195L791.329 275.205C788.341 275.504 786.03 275.65 784.379 275.65V277.65ZM791.497 277.198C798.793 276.698 804.215 276.45 807.779 276.45V274.45C804.143 274.45 798.665 274.702 791.361 275.202L791.497 277.198ZM807.779 276.45C818.088 276.45 825.928 278.188 831.406 281.552L832.452 279.848C826.53 276.212 818.27 274.45 807.779 274.45V276.45ZM831.406 281.552C836.783 284.854 839.479 289.866 839.479 296.75H841.479C841.479 289.234 838.475 283.546 832.452 279.848L831.406 281.552ZM839.479 296.75C839.479 307.242 835.429 314.738 827.375 319.436L828.383 321.164C837.129 316.062 841.479 307.858 841.479 296.75H839.479ZM827.383 319.432C819.193 324.111 807.789 326.5 793.079 326.5V328.5C807.968 328.5 819.764 326.089 828.375 321.168L827.383 319.432Z" fill="#003CFF" fill-opacity="0.4"/>
</svg>
